# xmcd
#
# Track frame offsets:
#	150
#	11415
#	26887
#	47362
#	64605
#
# Disc length: 1032 seconds
#
# Revision: 3
# Processed by: cddbd v1.5.1PL2 Copyright (c) Steve Scherf et al.
# Submitted via: dBpowerAMP V4.0
#
DISCID=33040605
DTITLE=Smokin' Armadillos - Out Of The Burrow
DYEAR=1993
DGENRE=Country
TTITLE0=My Girlfriend Might
TTITLE1=One More Town
TTITLE2=Red Rock
TTITLE3=Country Music
TTITLE4=I'm A Cowboy
EXTD=
EXTT0=
EXTT1=
EXTT2=
EXTT3=
EXTT4=
PLAYORDER=
